<svg xmlns="http://www.w3.org/2000/svg" version="1.1" xmlns:xlink="http://www.w3.org/1999/xlink" xmlns:svgjs="http://svgjs.com/svgjs" width="1440" height="560" preserveAspectRatio="none" viewBox="0 0 1440 560"><g mask="url(&quot;#SvgjsMask1058&quot;)" fill="none"><rect width="1440" height="560" x="0" y="0" fill="rgba(10, 68, 56, 1)"></rect><path d="M0,393.518C71.819,380.292,108.695,302.719,163.608,254.579C209.122,214.678,271.542,190.524,295.135,134.783C318.533,79.503,305.871,16.048,288.946,-41.544C273.633,-93.649,237.646,-134.113,203.662,-176.474C168.297,-220.557,136.491,-268.006,86.351,-294.083C29.502,-323.649,-37.519,-354.846,-97.863,-333.291C-158.082,-311.781,-173.805,-235.209,-215.116,-186.399C-255.788,-138.344,-327.714,-110.687,-338.729,-48.702C-349.755,13.349,-291.144,63.952,-270.164,123.38C-246.477,190.478,-257.85,272.614,-207.533,322.927C-154.795,375.661,-73.347,407.025,0,393.518" fill="#072c24"></path><path d="M1440 927.346C1509.433 924.0450000000001 1570.589 890.918 1632.998 860.31 1703.416 825.774 1785.433 803.096 1827.853 737.127 1872.245 668.092 1881.2269999999999 579.375 1865.441 498.831 1850.035 420.225 1794.068 359.187 1741.872 298.426 1689.465 237.418 1636.594 174.789 1561.763 145.31400000000002 1483.074 114.31900000000002 1393.547 101.971 1313.671 129.762 1235.239 157.051 1184.131 228.58499999999998 1133.42 294.347 1085.24 356.827 1041.375 423.01800000000003 1027.62 500.709 1013.586 579.976 1016.625 665.0840000000001 1055.279 735.696 1092.835 804.3009999999999 1164.828 844.3679999999999 1234.835 879.242 1299.008 911.21 1368.386 930.751 1440 927.346" fill="#0e5c4c"></path></g><defs><mask id="SvgjsMask1058"><rect width="1440" height="560" fill="#ffffff"></rect></mask></defs></svg>